<?xml version="1.0" encoding="utf-8"?>
<!-- Generator: Adobe Illustrator 22.1.0, SVG Export Plug-In . SVG Version: 6.00 Build 0)  -->
<svg version="1.1" id="Livello_1" xmlns="http://www.w3.org/2000/svg" xmlns:xlink="http://www.w3.org/1999/xlink" x="0px" y="0px"
	 viewBox="0 0 200 200" style="enable-background:new 0 0 200 200;" xml:space="preserve">
<style type="text/css">
	.st0{fill:#FFFFFF;}
</style>
<title>facebook</title>
<path class="st0" d="M151.9,28.8H48.1C37.6,28.8,29,37.4,29,47.9v103.7c0,10.6,8.6,19.1,19.1,19.1l0,0h51.2l0.1-50.8H86.2
	c-1.7,0-3.1-1.3-3.1-3L83,100.6c0-1.7,1.4-3.1,3.1-3.1l0,0h13.2V81.7c0-18.3,11.2-28.3,27.6-28.3h13.4c1.7,0,3.1,1.4,3.1,3.1l0,0
	v13.8c0,1.7-1.4,3.1-3.1,3.1l0,0H132c-8.9,0-10.6,4.2-10.6,10.4v13.7H141c1.7,0,3.1,1.4,3.1,3.1c0,0.1,0,0.2,0,0.4l-1.9,16.4
	c-0.2,1.6-1.5,2.7-3.1,2.8h-17.5l-0.1,50.7h30.4c10.6,0,19.1-8.6,19.1-19.1V47.9C171,37.4,162.4,28.8,151.9,28.8z"/>
</svg>
