<svg width="438" height="58" viewBox="0 0 438 58" fill="none" xmlns="http://www.w3.org/2000/svg">
<path d="M235.547 1.57619L226.306 56.8H224.72C223.84 56.8 223.2 56.08 223.2 55.28V34.24H200.32V55.28C200.32 56.08 199.68 56.8 198.8 56.8H189.28C188.48 56.8 187.76 56.08 187.76 55.28V2.32C187.76 1.52 188.48 0.799999 189.28 0.799999H198.8C199.68 0.799999 200.32 1.52 200.32 2.32V22.48H223.2V2.32C223.2 1.52 223.84 0.799999 224.72 0.799999H234.24C234.776 0.799999 235.275 1.12276 235.547 1.57619ZM0.8 51.44C-5.96046e-08 50.64 -0.24 50.32 0.4 49.2L4.16 42.56C4.8 41.52 6.32 41.68 6.88 42.08C7.2 42.24 12.96 46.48 18.24 46.48C21.44 46.48 23.76 44.48 23.76 41.68C23.76 38.32 20.96 35.76 15.52 33.6C8.64 30.88 0 25.52 0 15.92C0 8 6.16 0 18.48 0C26.8 0 33.2 4.24 35.6 6C36.56 6.56 36.4 8 36.08 8.56L32 14.72C31.44 15.6 30 16.32 29.28 15.76C28.56 15.36 22.72 10.96 17.84 10.96C14.96 10.96 12.8 12.88 12.8 15.04C12.8 18 15.2 20.24 21.52 22.8C27.76 25.28 37.68 30.16 37.68 41.04C37.68 49.28 30.56 57.6 18.8 57.6C8.4 57.6 2.64 53.28 0.8 51.44ZM47.44 55.28V2.32C47.44 1.52 48.08 0.799999 48.96 0.799999H58.48C59.28 0.799999 60 1.52 60 2.32V45.04H79.04C79.92 45.04 80.56 45.76 80.56 46.56V55.28C80.56 56.08 79.92 56.8 79.04 56.8H48.96C48.08 56.8 47.44 56.08 47.44 55.28ZM85.12 56.8C83.92 56.8 83.28 55.76 83.76 54.72L108.8 0.879999C109.04 0.399999 109.6 0 110.16 0H110.96C111.52 0 112.08 0.399999 112.32 0.879999L137.36 54.72C137.84 55.76 137.2 56.8 136 56.8H127.12C125.68 56.8 125.04 56.32 124.32 54.8L121.44 48.48H99.68L96.8 54.88C96.4 55.84 95.52 56.8 93.92 56.8H85.12ZM104.48 37.6H116.64L110.56 24.4H110.48L104.48 37.6ZM141.12 51.44C140.32 50.64 140.08 50.32 140.72 49.2L144.48 42.56C145.12 41.52 146.64 41.68 147.2 42.08C147.52 42.24 153.28 46.48 158.56 46.48C161.76 46.48 164.08 44.48 164.08 41.68C164.08 38.32 161.28 35.76 155.84 33.6C148.96 30.88 140.32 25.52 140.32 15.92C140.32 8 146.48 0 158.8 0C167.12 0 173.52 4.24 175.92 6C176.88 6.56 176.72 8 176.4 8.56L172.32 14.72C171.76 15.6 170.32 16.32 169.6 15.76C168.88 15.36 163.04 10.96 158.16 10.96C155.28 10.96 153.12 12.88 153.12 15.04C153.12 18 155.52 20.24 161.84 22.8C168.08 25.28 178 30.16 178 41.04C178 49.28 170.88 57.6 159.12 57.6C148.72 57.6 142.96 53.28 141.12 51.44ZM242.4 55.04L251.44 1.28C251.52 0.559999 252.24 0 252.88 0H254.16C254.56 0 255.28 0.319999 255.52 0.799999L274.08 35.36H274.24L292.8 0.799999C293.04 0.319999 293.76 0 294.16 0H295.44C296.08 0 296.8 0.559999 296.88 1.28L305.92 55.04C306.08 56.08 305.36 56.8 304.4 56.8H294.96C294.24 56.8 293.52 56.16 293.44 55.52L289.84 30.8H289.68L276.24 56.72C276 57.2 275.28 57.6 274.88 57.6H273.44C272.96 57.6 272.32 57.2 272.08 56.72L258.56 30.8H258.4L254.88 55.52C254.8 56.16 254.16 56.8 253.36 56.8H243.92C242.96 56.8 242.24 56.08 242.4 55.04ZM316.16 55.28V2.32C316.16 1.52 316.88 0.799999 317.68 0.799999H327.28C328.08 0.799999 328.8 1.52 328.8 2.32V55.28C328.8 56.08 328.08 56.8 327.28 56.8H317.68C316.88 56.8 316.16 56.08 316.16 55.28ZM342.56 55.28L342.48 1.44C342.48 0.639999 343.2 0 344 0H346L377.92 30.72H378V2.32C378 1.52 378.64 0.799999 379.52 0.799999H389.12C389.92 0.799999 390.64 1.52 390.64 2.32V56.16C390.64 56.96 389.92 57.6 389.12 57.6H387.84C387.6 57.6 386.96 57.36 386.8 57.2L355.2 25.44H355.12V55.28C355.12 56.08 354.48 56.8 353.6 56.8H344.08C343.28 56.8 342.56 56.08 342.56 55.28ZM411.6 55.28V12.56H400.16C399.28 12.56 398.64 11.84 398.64 11.04V2.32C398.64 1.52 399.28 0.799999 400.16 0.799999H435.68C436.56 0.799999 437.2 1.52 437.2 2.32V11.04C437.2 11.84 436.56 12.56 435.68 12.56H424.24V55.28C424.24 56.08 423.52 56.8 422.72 56.8H413.12C412.32 56.8 411.6 56.08 411.6 55.28Z" fill="white"/>
</svg>
