<svg width="48" height="48" viewBox="0 0 48 48" fill="none" xmlns="http://www.w3.org/2000/svg">
<path fill-rule="evenodd" clip-rule="evenodd" d="M24 48C37.2548 48 48 37.2548 48 24C48 10.7452 37.2548 0 24 0C10.7452 0 0 10.7452 0 24C0 37.2548 10.7452 48 24 48ZM18.7839 20.4657L19.2995 17.2745C18.4053 16.7095 16.9457 16 15.1759 16C11.7253 16 10 18.3208 10 20.6184C10 23.4034 12.4199 24.9584 14.3468 25.7474C15.8705 26.3741 16.6547 27.1167 16.6547 28.0915C16.6547 28.9038 16.0049 29.484 15.1086 29.484C13.7904 29.484 12.3654 28.5066 12.0079 28.2614C11.9644 28.2315 11.9367 28.2125 11.9269 28.2075C11.7701 28.0915 11.3444 28.045 11.1651 28.3468L10.112 30.273C9.93278 30.598 10 30.6908 10.2241 30.9229C10.7394 31.4567 12.3527 32.7099 15.2655 32.7099C15.8288 32.7099 16.3542 32.6393 16.838 32.5103L18.2474 23.7866C17.4974 23.2584 16.6886 22.8865 16.0273 22.6143C14.2572 21.8717 13.585 21.2218 13.585 20.3631C13.585 19.7365 14.19 19.1795 14.9966 19.1795C16.1784 19.1795 17.5611 20.1338 18.0442 20.4671C18.1198 20.5193 18.1734 20.5563 18.2007 20.572C18.3462 20.6893 18.5968 20.6131 18.7839 20.4657ZM23.7351 16.6614L21.2031 32.2573C21.1583 32.559 21.36 32.7679 21.6289 32.7679H24.2728C24.4969 32.7679 24.6761 32.5823 24.6985 32.3966L25.6844 25.2253H25.7292L29.5159 32.7447C29.5831 32.884 29.7624 33 29.8968 33H30.3001C30.4121 33 30.6138 32.884 30.681 32.7447L34.4453 25.2253H34.4901L35.4984 32.3966C35.5208 32.5823 35.7224 32.7679 35.9241 32.7679H38.568C38.8369 32.7679 39.0386 32.559 38.9937 32.2573L36.4618 16.6614C36.4394 16.4526 36.2378 16.2901 36.0585 16.2901H35.7C35.588 16.2901 35.3863 16.3829 35.3191 16.5222L30.1209 26.5481H30.076L24.8778 16.5222C24.8106 16.3829 24.6089 16.2901 24.4969 16.2901H24.1384C23.9591 16.2901 23.7575 16.4526 23.7351 16.6614Z" fill="white"/>
</svg>
