<?xml version="1.0" encoding="iso-8859-1"?>
<!-- Generator: Adobe Illustrator 19.0.0, SVG Export Plug-In . SVG Version: 6.00 Build 0)  -->
<svg version="1.1" id="Capa_1" xmlns="http://www.w3.org/2000/svg" xmlns:xlink="http://www.w3.org/1999/xlink" x="0px" y="0px"
	 viewBox="0 0 512 512" style="enable-background:new 0 0 512 512;" xml:space="preserve">
<g>
	<g>
		<g>
			<circle cx="20" cy="421.501" r="20"/>
			<circle cx="20" cy="491.5" r="20"/>
			<path d="M509.278,10.435c-5.561-9.544-17.806-12.774-27.349-7.213c-1.153,0.672-116.053,67.652-178.651,107.396
				c-37.57,23.854-48.904,55.779-53.366,85.463c-70.038,66.29-120.919,86.489-197.013,116.702c-0.572,0.227-1.151,0.457-1.725,0.685
				c4.789-12.363,10.856-26.113,18.206-41.215c18.649-38.32,42.272-75.494,58.784-92.501c10.359-10.67,26.214-13.321,39.452-6.597
				c0.035,0.018,0.07,0.036,0.106,0.053l24.325,12.178c9.875,4.946,21.892,0.947,26.837-8.931
				c4.945-9.877,0.947-21.893-8.931-26.837l-24.282-12.157c-28.946-14.674-63.582-8.877-86.207,14.428
				c-19.48,20.067-45.407,60.442-66.05,102.859c-17.827,36.631-28.642,65.77-33.063,89.081c0,0,0,0,0,0.001
				c-0.084,0.444-0.154,0.892-0.208,1.345c-0.017,0.145-0.023,0.289-0.037,0.433c-0.017,0.171-0.031,0.341-0.044,0.511
				c-0.037,0.513-0.058,1.024-0.055,1.534c0.001,0.152,0.004,0.304,0.008,0.456c0.013,0.475,0.045,0.947,0.091,1.417
				c0.021,0.216,0.047,0.431,0.075,0.645c0.055,0.417,0.124,0.831,0.205,1.242c0.04,0.205,0.081,0.409,0.127,0.613
				c0.104,0.453,0.225,0.901,0.36,1.344c0.06,0.196,0.123,0.389,0.189,0.583c0.139,0.412,0.292,0.819,0.458,1.221
				c0.048,0.116,0.089,0.235,0.14,0.351c0.218,0.502,0.462,0.992,0.721,1.474c0.076,0.141,0.155,0.279,0.234,0.417
				c0.229,0.404,0.472,0.8,0.729,1.188c0.062,0.094,0.12,0.191,0.184,0.284c0.315,0.458,0.652,0.903,1.006,1.335
				c0.095,0.116,0.195,0.227,0.292,0.341c0.282,0.329,0.574,0.648,0.878,0.959c0.117,0.12,0.231,0.242,0.352,0.359
				c0.382,0.371,0.777,0.73,1.191,1.073c0.147,0.122,0.303,0.235,0.454,0.354c0.183,0.143,0.361,0.292,0.55,0.429
				c0.989,0.718,24.645,17.703,60.799,27.226c16.252,4.281,32.503,6.408,48.559,6.408c31.643,0,62.52-8.265,91.099-24.595
				c66.338-37.902,75.672-124.907,79.658-162.06c0.013-0.117,0.025-0.234,0.038-0.351c0.406-1.627,0.606-3.296,0.598-4.965
				c4.088-30.784,13.784-47.089,35.72-61.017c61.953-39.335,176.2-105.934,177.347-106.602
				C511.609,32.224,514.838,19.979,509.278,10.435z M188.861,338.048c-33.842,19.336-70.261,24.247-108.249,14.593
				c-3.967-1.008-7.756-2.132-11.338-3.321c63.58-25.246,113.109-45.106,170.959-91.614
				C232.061,291.359,217.475,321.7,188.861,338.048z"/>
		</g>
	</g>
</g>
<g>
</g>
<g>
</g>
<g>
</g>
<g>
</g>
<g>
</g>
<g>
</g>
<g>
</g>
<g>
</g>
<g>
</g>
<g>
</g>
<g>
</g>
<g>
</g>
<g>
</g>
<g>
</g>
<g>
</g>
</svg>
