<?xml version="1.0" encoding="utf-8"?>
<!-- Generator: Adobe Illustrator 22.1.0, SVG Export Plug-In . SVG Version: 6.00 Build 0)  -->
<svg version="1.1" id="Livello_1" xmlns="http://www.w3.org/2000/svg" xmlns:xlink="http://www.w3.org/1999/xlink" x="0px" y="0px"
	 viewBox="0 0 200 200" style="enable-background:new 0 0 200 200;" xml:space="preserve">
<style type="text/css">
	.st0{fill:#FFFFFF;}
</style>
<title>twitter</title>
<path class="st0" d="M173.3,51.6c-3.4,1.5-6.9,2.7-10.4,3.5c4-3.8,6.9-8.5,8.6-13.7l0,0c0.3-0.9-0.2-1.9-1.1-2.2
	c-0.5-0.2-1-0.1-1.4,0.2l0,0c-5,3-10.4,5.2-16,6.6c-1.3,0.3-2.8,0-3.8-0.9c-6-5.3-13.6-8.2-21.6-8.2c-3.5,0-7,0.5-10.3,1.6
	c-10.6,3.3-18.7,12-21.3,22.8c-1,3.9-1.2,8-0.8,12c0,0.3-0.1,0.7-0.3,0.9c-0.2,0.3-0.6,0.4-0.9,0.4h-0.1
	C70.8,72.5,49.6,61.2,35,43.2l0,0c-0.6-0.7-1.7-0.8-2.4-0.2c-0.2,0.1-0.3,0.3-0.4,0.5l0,0c-7.5,12.9-5.3,29.2,5.3,39.7
	c-2.6-0.6-5.1-1.6-7.5-2.9l0,0c-0.8-0.5-1.9-0.2-2.3,0.7c-0.1,0.2-0.2,0.5-0.2,0.8l0,0c-0.2,12.9,7.3,24.7,19.1,30.1h-0.7
	c-1.8,0-3.7-0.2-5.5-0.5l0,0c-0.9-0.2-1.8,0.4-2,1.3c-0.1,0.3-0.1,0.6,0,0.9l0,0c3.8,11.7,13.7,20.3,25.9,22.3
	c-10,6.7-21.7,10.3-33.7,10.3h-3.8c-1.2,0-2.2,0.8-2.5,1.9c-0.3,1.1,0.2,2.3,1.2,2.9c13.7,7.9,29.2,12.1,45,12.1
	c13.3,0.1,26.4-2.7,38.5-8.2c10.8-5,20.3-12.2,28.1-21.1c7.5-8.5,13.3-18.3,17.3-28.9c3.8-10.1,5.8-20.8,5.9-31.6v-0.5
	c0-1.7,0.8-3.3,2.1-4.3c5-4.1,9.4-8.9,13-14.2l0,0c0.5-0.8,0.3-1.8-0.5-2.4C174.5,51.4,173.8,51.3,173.3,51.6L173.3,51.6z"/>
</svg>
