<svg width="48" height="48" viewBox="0 0 48 48" fill="none" xmlns="http://www.w3.org/2000/svg">
<path fill-rule="evenodd" clip-rule="evenodd" d="M24 48C37.2548 48 48 37.2548 48 24C48 10.7452 37.2548 0 24 0C10.7452 0 0 10.7452 0 24C0 37.2548 10.7452 48 24 48ZM33.4084 18.8451C34.3021 18.7383 35.1754 18.4968 36 18.1285C35.393 19.0452 34.6281 19.8415 33.7428 20.4786L33.7582 21.067C33.7582 27.0734 29.2196 34 20.9179 34C18.4689 34.0037 16.0694 33.2943 14 31.9547C14.3531 31.9952 14.7117 32.0177 15.0769 32.0177C17.104 32.0234 19.0755 31.34 20.6814 30.0749C19.7451 30.0614 18.8362 29.7502 18.0808 29.1843C17.3254 28.6184 16.7611 27.8259 16.4662 26.917C16.7423 26.9733 17.025 27.0014 17.3165 27.0014C17.7175 27.0013 18.1169 26.9479 18.5045 26.8428C16.442 26.4243 14.8855 24.5871 14.8855 22.3844V22.3281C15.5136 22.6795 16.2137 22.8749 16.9293 22.8985C16.3139 22.488 15.8081 21.9271 15.4578 21.2666C15.1075 20.606 14.9237 19.8666 14.9229 19.1151C14.9212 18.3117 15.1317 17.5226 15.5323 16.8314C16.6749 18.2406 18.0922 19.3906 19.6938 20.2082C21.2953 21.0259 23.0459 21.493 24.8339 21.58C24.7569 21.2481 24.7173 20.9005 24.7173 20.545C24.7173 18.0363 26.738 16 29.2306 16C29.8462 15.9977 30.4558 16.1237 31.0222 16.3704C31.5887 16.617 32.1 16.979 32.5251 17.4344C33.5346 17.2337 34.504 16.861 35.3928 16.3319C35.0519 17.3884 34.3465 18.2818 33.4084 18.8451Z" fill="white"/>
</svg>
