<svg width="48" height="48" viewBox="0 0 48 48" fill="none" xmlns="http://www.w3.org/2000/svg">
<path fill-rule="evenodd" clip-rule="evenodd" d="M24 48C37.2548 48 48 37.2548 48 24C48 10.7452 37.2548 0 24 0C10.7452 0 0 10.7452 0 24C0 37.2548 10.7452 48 24 48ZM29.2639 28.2798C29.4272 27.7725 31.4322 21.6266 31.4322 21.6266C32.3975 19.1045 34.2687 16.7418 37.8182 16.7418L32.7836 28.8161C31.744 31.2368 29.8134 33.4545 26.2194 33.4545C26.2194 33.4545 24.6897 23.1196 24.6749 22.8877C24.5858 23.1341 22.4323 28.5697 22.4323 28.5697C21.4224 31.0774 19.4918 33.44 15.9126 33.4545L13.0909 16.7418C15.4226 16.7418 18.3037 18.6116 18.5116 21.6846C18.5116 21.6846 18.868 27.816 18.8829 28.2943C19.0908 27.7725 21.5264 21.6121 21.5264 21.6121C22.4917 19.1045 24.3184 16.7273 27.7342 16.7273C27.7342 16.7273 29.2045 27.758 29.2639 28.2798Z" fill="white"/>
</svg>
